<svg id="Layer_1" data-name="Layer 1" xmlns="http://www.w3.org/2000/svg" viewBox="0 0 60 60"><title>descargas</title><path d="M56,14.94A29.35,29.35,0,0,1,60,30a29.35,29.35,0,0,1-4,15.06A29.87,29.87,0,0,1,45.06,56,29.35,29.35,0,0,1,30,60a29.35,29.35,0,0,1-15.06-4A29.85,29.85,0,0,1,4,45.06,29.34,29.34,0,0,1,0,30,29.35,29.35,0,0,1,4,14.94,29.87,29.87,0,0,1,14.94,4,29.35,29.35,0,0,1,30,0,29.35,29.35,0,0,1,45.06,4,29.88,29.88,0,0,1,56,14.94ZM40.66,11.6A20.78,20.78,0,0,0,30,8.75,20.78,20.78,0,0,0,19.34,11.6a21.18,21.18,0,0,0-7.73,7.73A20.77,20.77,0,0,0,8.75,30,20.77,20.77,0,0,0,11.6,40.66a21.16,21.16,0,0,0,7.73,7.73A20.77,20.77,0,0,0,30,51.25,20.77,20.77,0,0,0,40.66,48.4a21.18,21.18,0,0,0,7.73-7.73A20.78,20.78,0,0,0,51.25,30,20.78,20.78,0,0,0,48.4,19.34,21.19,21.19,0,0,0,40.66,11.6Zm3.09,19.65a1.47,1.47,0,0,1-.39.94L30.9,44.65a1.32,1.32,0,0,1-1.8,0L16.6,32.15a1.19,1.19,0,0,1-.27-1.37A1.16,1.16,0,0,1,17.5,30H25V16.25A1.2,1.2,0,0,1,26.25,15h7.5A1.2,1.2,0,0,1,35,16.25V30h7.5A1.2,1.2,0,0,1,43.75,31.25Z" fill="#fff"/></svg>