<svg id="Layer_1" data-name="Layer 1" xmlns="http://www.w3.org/2000/svg" viewBox="0 0 60 70"><title>formulario</title><path d="M57.34,14.84a9.11,9.11,0,0,1,1.88,3A9,9,0,0,1,60,21.25v45A3.73,3.73,0,0,1,56.25,70H3.75a3.62,3.62,0,0,1-2.66-1.09A3.62,3.62,0,0,1,0,66.25V3.75A3.62,3.62,0,0,1,1.09,1.09,3.62,3.62,0,0,1,3.75,0h35a9,9,0,0,1,3.44.78,9.11,9.11,0,0,1,3,1.88ZM55,65V25H38.75A3.73,3.73,0,0,1,35,21.25V5H5V65H55ZM15,31.25A1.2,1.2,0,0,1,16.25,30h27.5A1.2,1.2,0,0,1,45,31.25v2.5A1.2,1.2,0,0,1,43.75,35H16.25A1.2,1.2,0,0,1,15,33.75v-2.5ZM43.75,40A1.2,1.2,0,0,1,45,41.25v2.5A1.2,1.2,0,0,1,43.75,45H16.25A1.2,1.2,0,0,1,15,43.75v-2.5A1.2,1.2,0,0,1,16.25,40h27.5Zm0,10A1.2,1.2,0,0,1,45,51.25v2.5A1.2,1.2,0,0,1,43.75,55H16.25A1.2,1.2,0,0,1,15,53.75v-2.5A1.2,1.2,0,0,1,16.25,50h27.5ZM40,5.31V20H54.69a4.27,4.27,0,0,0-.86-1.6L41.6,6.17A4.27,4.27,0,0,0,40,5.31Z" fill="#fff"/></svg>