<svg id="Layer_1" data-name="Layer 1" xmlns="http://www.w3.org/2000/svg" viewBox="0 0 75 65"><title>videos</title><path d="M75,6.25v52.5A6.27,6.27,0,0,1,68.75,65H6.25a6,6,0,0,1-4.41-1.84A6,6,0,0,1,0,58.75V6.25A6,6,0,0,1,1.84,1.84,6,6,0,0,1,6.25,0h62.5a6,6,0,0,1,4.41,1.84A6,6,0,0,1,75,6.25ZM15,12.5v-5A2.53,2.53,0,0,0,12.5,5h-5a2.4,2.4,0,0,0-1.76.74A2.4,2.4,0,0,0,5,7.5v5a2.4,2.4,0,0,0,.74,1.76A2.4,2.4,0,0,0,7.5,15h5A2.53,2.53,0,0,0,15,12.5Zm0,15v-5A2.53,2.53,0,0,0,12.5,20h-5a2.4,2.4,0,0,0-1.76.74A2.4,2.4,0,0,0,5,22.5v5a2.4,2.4,0,0,0,.74,1.76A2.4,2.4,0,0,0,7.5,30h5A2.53,2.53,0,0,0,15,27.5Zm0,15v-5A2.53,2.53,0,0,0,12.5,35h-5a2.4,2.4,0,0,0-1.76.74A2.4,2.4,0,0,0,5,37.5v5a2.4,2.4,0,0,0,.74,1.76A2.4,2.4,0,0,0,7.5,45h5A2.53,2.53,0,0,0,15,42.5Zm0,15v-5A2.53,2.53,0,0,0,12.5,50h-5a2.4,2.4,0,0,0-1.76.74A2.4,2.4,0,0,0,5,52.5v5a2.4,2.4,0,0,0,.74,1.76A2.4,2.4,0,0,0,7.5,60h5A2.53,2.53,0,0,0,15,57.5Zm40-30V7.5A2.53,2.53,0,0,0,52.5,5h-30a2.4,2.4,0,0,0-1.76.74A2.4,2.4,0,0,0,20,7.5v20A2.53,2.53,0,0,0,22.5,30h30A2.53,2.53,0,0,0,55,27.5Zm0,30v-20A2.53,2.53,0,0,0,52.5,35h-30A2.53,2.53,0,0,0,20,37.5v20A2.53,2.53,0,0,0,22.5,60h30A2.53,2.53,0,0,0,55,57.5Zm15-45v-5A2.53,2.53,0,0,0,67.5,5h-5a2.4,2.4,0,0,0-1.76.74A2.4,2.4,0,0,0,60,7.5v5A2.53,2.53,0,0,0,62.5,15h5A2.53,2.53,0,0,0,70,12.5Zm0,15v-5A2.53,2.53,0,0,0,67.5,20h-5A2.53,2.53,0,0,0,60,22.5v5A2.53,2.53,0,0,0,62.5,30h5A2.53,2.53,0,0,0,70,27.5Zm0,15v-5A2.53,2.53,0,0,0,67.5,35h-5A2.53,2.53,0,0,0,60,37.5v5A2.53,2.53,0,0,0,62.5,45h5A2.53,2.53,0,0,0,70,42.5Zm0,15v-5A2.53,2.53,0,0,0,67.5,50h-5A2.53,2.53,0,0,0,60,52.5v5A2.53,2.53,0,0,0,62.5,60h5A2.53,2.53,0,0,0,70,57.5Z" fill="#fff"/></svg>